<svg width="27" height="18" viewBox="0 0 27 18" fill="none" xmlns="http://www.w3.org/2000/svg">
<rect width="26.25" height="18" rx="1.5" fill="#00579F"/>
<path d="M11.2306 12.062H9.74634L10.6747 6.32178H12.1588L11.2306 12.062Z" fill="white"/>
<path d="M16.6105 6.46216C16.3177 6.34601 15.8534 6.21777 15.2793 6.21777C13.8135 6.21777 12.7814 6.99938 12.775 8.11683C12.7629 8.94129 13.514 9.39922 14.0758 9.67412C14.6501 9.95502 14.8453 10.1384 14.8453 10.3888C14.8394 10.7733 14.3813 10.9506 13.9539 10.9506C13.3614 10.9506 13.0439 10.8592 12.5613 10.6452L12.3659 10.5535L12.1582 11.8421C12.5063 12.0007 13.1477 12.1414 13.8135 12.1476C15.3709 12.1476 16.3848 11.3781 16.3968 10.1872C16.4027 9.53379 16.0061 9.03309 15.1509 8.62394C14.6318 8.3613 14.3139 8.1842 14.3139 7.91547C14.32 7.67117 14.5828 7.42094 15.1688 7.42094C15.6513 7.40868 16.0058 7.52467 16.2744 7.64073L16.4086 7.70168L16.6105 6.46216Z" fill="white"/>
<path d="M18.584 10.0284C18.7062 9.69866 19.1765 8.42237 19.1765 8.42237C19.1704 8.43462 19.2985 8.08651 19.3718 7.87281L19.4755 8.36742C19.4755 8.36742 19.7566 9.74143 19.8176 10.0284C19.5857 10.0284 18.8771 10.0284 18.584 10.0284ZM20.4161 6.32178H19.268C18.914 6.32178 18.645 6.4255 18.4922 6.79804L16.2876 12.0619H17.845C17.845 12.0619 18.1014 11.3534 18.1565 11.2008C18.3273 11.2008 19.8423 11.2008 20.0621 11.2008C20.1047 11.4024 20.2392 12.0619 20.2392 12.0619H21.6135L20.4161 6.32178Z" fill="white"/>
<path d="M8.50649 6.32178L7.05293 10.236L6.89409 9.44218C6.62536 8.52618 5.78256 7.53095 4.84204 7.0361L6.17345 12.0559H7.74298L10.0759 6.32178H8.50649Z" fill="white"/>
<path d="M5.70319 6.32178H3.3152L3.29077 6.43776C5.15355 6.91411 6.38724 8.06233 6.8941 9.44243L6.37498 6.80429C6.28952 6.43768 6.02687 6.33387 5.70319 6.32178Z" fill="#FAA61A"/>
</svg>
